<svg class="trusted-tip-flask" xmlns="http://www.w3.org/2000/svg" width="32" height="32" fill="none" viewBox="0 0 32 32">
        <rect y="31.9991" width="31.9991" height="31.9991" rx="15.9996" transform="rotate(-89.9985 0 31.9991)" fill="white"></rect>
        <rect width="30.999" height="30.999" x=".5" y="31.499" stroke="#0ce447" class="color-change-flask-rect" rx="15.5" transform="rotate(-89.999 .5 31.5)"></rect>
        <path fill="#0ce447" d="M15.666 14.667a1.001 1.001 0 1 0 1 1c0-.552-.448-1-1-1Z" class="color-change-flask"></path>
        <path fill="#0ce447" d="m22.825 22.105-2.25-3.937-2.241-3.923V10h.333a1.001 1.001 0 0 0 0-2h-5.333a1.001 1.001 0 0 0 0 2h.333v4.245l-2.242 3.923-2.25 3.937c-.227.397-.225.87.004 1.264.23.396.639.631 1.095.631h11.451c.457 0 .866-.236 1.095-.63.23-.396.231-.869.005-1.265ZM13.333 9.333a.334.334 0 0 1 0-.666h5.333a.334.334 0 0 1 0 .666h-5.333Zm1 12.667a1.001 1.001 0 0 1 0-2c.551 0 1 .449 1 1 0 .551-.449 1-1 1Zm3.333-1.333a1.001 1.001 0 1 1 1-1c0 .551-.448 1-1 1ZM12.288 18l2.001-3.501a.336.336 0 0 0 .044-.166V10h3.333v4.333a.33.33 0 0 0 .044.166L19.711 18h-7.423Z" class="color-change-flask"></path>
    </svg>